<svg width="708" height="400" viewBox="0 -43 708 357" xmlns="http://www.w3.org/2000/svg" xmlns:xlink="http://www.w3.org/1999/xlink"><defs><path id="a" d="M.494.74H747v290.663H.494z"/><path id="c" d="M.136.645H223v229.758H.136z"/><path id="e" d="M.097.211H94v100.08H.097z"/></defs><g fill="none" fill-rule="evenodd"><g transform="translate(-39 65.597)"><mask id="b" fill="#fff"><use xlink:href="#a"/></mask><path d="M771.72 297.577l-771.226-.74c159.712-15.971 283.44-108.316 337.601-152.753 54.16-44.436 120.916-87.052 185.661-113.809C603.646-2.739 726.661-2.173 772.933 4.093l-1.214 293.484z" fill="#F4D6C6" mask="url(#b)"/></g><path d="M672.606 65.827c.883 3.893.143 8.14 1.267 11.915.528 1.773 1.876 3.456 3.705 3.728 2.599.388 4.687-2.06 5.983-4.344 5.199-9.178 6.857-19.907 7.839-30.411.544-5.816.912-11.65 1.098-17.49.126-4.016.879-9.73-2.728-12.57-.874-.69-1.902-1.074-3.013-1.264-2.245 1.73-4.144 4.144-5.464 6.63-2.787 5.249-4.336 11.32-8.48 15.58-3.857 3.967-8.79 5.469-14.17 5.66 2.18 4.179 6.474 7.34 9.14 11.343a33.833 33.833 0 014.823 11.223" fill="#FFF"/><path d="M624.104 19.292C618.167 5.16 609.144-.022 605.084.864c-3.271.717-2.667 6.74-2.658 7.625 1.903.102 3.309 1.99 4.158 3.767 3.51 7.341 3.945 16.056 1.314 23.752 5.83-.098 19.653 1.913 25.41 2.83-6.585-3.86-6.844-13.93-9.204-19.546" fill="#F4D6C6"/><path d="M606.584 12.255c-.849-1.775-2.256-3.665-4.158-3.767.01.995 1.013 6.75-.154 14.774-.836 5.747-2.538 9.9-4.164 13.382 1.872-.135 7.912-.606 9.79-.637 2.631-7.695 2.197-16.41-1.314-23.752" fill="#FFF"/><path d="M507.327 93.996c-1.975-1.261-5.122-3.569-8.615-5.75a63.949 63.949 0 00-4.264-2.46c-.756.172-.741 2.372-1.507 2.521-2.604.507-3.69.095-5.07 2.362-.256.421-1.323.998-1.448 1.466-.346 1.295-2.021 1.579-1.922 2.939.2 2.68.397 5.359.594 8.039 3.308 1.618 5.736-.489 8.712-2.854 2.96-2.353 4.803-2.04 8.413-1.58 1.885.241 7.021 1.192 7.145-2.049.045-1.164-1.056-2.006-2.038-2.634" fill="#FF4D4D"/><path d="M501.558 158.838c-.18-.162-.359-.323-.532-.489.176.166.354.327.532.49" fill="#DAE6ED"/><path d="M504.675 132.145c21.038 14.59 85.456 25.52 119.008 81.882 54.428 91.43 153.403 174.548 131.555 180.777-.009.002-.04.009-.08.014l37.25-.014-5.128-134.05-3.486-87.06c-25.457-5.13-66.15-42.746-71.81-58.806-6.164-17.486-2.513-37.083-1.482-55.867.744-13.546.127-26.67-6.527-38.267-1.993-3.474-4.817-6.887-8.735-7.716-3.06-.647-5.986.43-8.483 2.353 1.11.19 2.14.574 3.013 1.263 3.607 2.841 2.854 8.554 2.727 12.571a284.633 284.633 0 01-1.098 17.49c-.06.657-.135 1.316-.203 1.975-1.01 9.866-2.76 19.831-7.636 28.435-1.432 2.527-3.833 5.25-6.823 4.124-1.239-.468-2.158-1.536-2.62-2.778-1.472-3.95-.57-8.499-1.51-12.645a33.853 33.853 0 00-4.824-11.223c-2.667-4.002-6.96-7.164-9.14-11.34-8.107.287-17.24-2.432-25.335-4.425a97.893 97.893 0 00-7.987-1.608 39.4 39.4 0 00-.839-.122c-5.359-.73-10.757-1.177-16.166-1.108a102.33 102.33 0 00-6.043.252c-1.66.121-3.316.288-4.967.491-1.936.238-20.402 2.505-26.384 4.975-9.964 4.113-20.598 7.007-38.574 22.47-16.34 14.056-17.205 16.895-37.9 21.598a63.786 63.786 0 014.265 2.46c3.492 2.18 6.64 4.489 8.614 5.75.982.629 2.083 1.47 2.038 2.635-.124 3.24-5.259 2.288-7.146 2.047-3.609-.46-5.452-.773-8.413 1.581-2.975 2.365-5.402 4.471-8.712 2.853-1.859 5.448-2.446 14.302.042 24.802 6.356-1.286 11.78-1.15 19.54 4.231" fill="#F4D6C6"/><path d="M492.903 147.454a86.289 86.289 0 002.508 4.178c1.632 2.546 3.512 4.732 5.568 6.672-2.921-2.803-5.691-6.714-8.076-10.85" fill="#DAE6ED"/><path d="M501.806 159.062a17.875 17.875 0 01-.248-.224c.082.075.163.15.248.224m-.801-.731a.36.36 0 01.021.019l-.048-.046.027.027m-8.102-10.877c-3.852-6.838-6.326-13.464-7.766-19.54.345 3.699 3.414 11.995 7.766 19.54" fill="#FFF"/><g transform="translate(485 126.597)"><mask id="d" fill="#fff"><use xlink:href="#c"/></mask><path d="M270.238 268.207c21.848-6.229-77.127-89.346-131.555-180.777-33.552-56.36-97.97-67.293-119.008-81.882C11.915.168 6.492.031.136 1.318c1.44 6.075 3.915 12.701 7.767 19.54 2.385 4.135 5.155 8.046 8.075 10.85l.048.045c.173.165.352.327.532.488l.247.224c16.13 14.16 57.027 18.911 89.702 115.012 12.63 37.147 34.596 119.166 34.596 119.166s72.521-.982 99.254 1.591l29.8-.012c.041-.007.072-.012.081-.015" fill="#FFF" mask="url(#d)"/></g><path d="M503.539 91.432a134.553 134.553 0 00-4.827-3.185 70.137 70.137 0 00-2.986-1.756c-.426-.237-.85-.482-1.277-.705-.757.172-1.508.359-2.275.508-2.604.507-5.568 1.084-6.947 3.35a5.065 5.065 0 00-.56 1.34c-.346 1.296-.266 2.73-.165 4.09l.035.478c1.57-.598 2.966-1.12 3.963-1.347 4.966-1.136 10-1.96 15.039-2.773" fill="#F7F0EB"/><path d="M570.922 41.718c-9.963 4.114-20.598 7.008-38.574 22.47-16.341 14.056-17.204 16.895-37.9 21.598.429.223.852.467 1.278.705a69.72 69.72 0 012.987 1.755 135.336 135.336 0 014.826 3.186c8.757-1.416 17.518-2.804 25.919-5.76 11.847-4.167 22.403-11.263 32.814-18.284l21.444-14.462c3.554-2.397 7.163-4.844 9.865-8.172 1.956-2.409 3.926-5.169 4.538-8.101-.27.031-.542.057-.813.09-1.936.239-20.402 2.506-26.384 4.975" fill="#FFF"/><path d="M581.394 72.93c-2.184-1.434-5.028-1.469-7.437-.31-2.41 1.16-4.375 3.436-5.54 6.091-.492 1.122-.852 2.313-1.404 3.402-.552 1.088-1.344 2.101-2.383 2.527-.823.337-1.832.342-2.384 1.12-.526.738-.58 2.07.042 2.651 1.002.938 4.157.396 4.978.394 3.497-.005 7.249.577 10.257-.297 5-1.45 6.323-3.939 7.114-7.479.713-3.195-1.187-6.749-3.243-8.099" fill="#003459"/><g transform="translate(614 68.597)"><mask id="f" fill="#fff"><use xlink:href="#e"/></mask><path d="M97.984 46.291c-4.265-12.1-3.2-32.927-2.186-46.08-.79 10.077-6.734 26.866-13.581 34.468-8.13 9.028-19.192 13.99-31.308 14.89C34.007 50.823-1.522 38.428.154 60.226 1.722 80.601 40.384 96.7 57.202 98.781c30.405 3.761 80.889-.12 88.004-4.915-21.405-13.785-43.193-36.142-47.222-47.576" fill="#003459" mask="url(#f)"/></g></g></svg>